<?xml version="1.0" encoding="UTF-8" standalone="no"?>
<!-- Created with Inkscape (http://www.inkscape.org/) -->

<svg
   xmlns:dc="http://purl.org/dc/elements/1.1/"
   xmlns:cc="http://creativecommons.org/ns#"
   xmlns:rdf="http://www.w3.org/1999/02/22-rdf-syntax-ns#"
   xmlns:svg="http://www.w3.org/2000/svg"
   xmlns="http://www.w3.org/2000/svg"
   xmlns:sodipodi="http://sodipodi.sourceforge.net/DTD/sodipodi-0.dtd"
   xmlns:inkscape="http://www.inkscape.org/namespaces/inkscape"
   width="575.99994"
   height="352"
   viewBox="0 0 575.99994 352.00002"
   id="svg2"
   version="1.1"
   inkscape:version="0.91 r13725"
   sodipodi:docname="BlockDesigns.svg">
  <defs
     id="defs4" />
  <sodipodi:namedview
     id="base"
     pagecolor="#ffffff"
     bordercolor="#666666"
     borderopacity="1.0"
     inkscape:pageopacity="0.0"
     inkscape:pageshadow="2"
     inkscape:zoom="1"
     inkscape:cx="292.07622"
     inkscape:cy="189.9277"
     inkscape:document-units="px"
     inkscape:current-layer="g4801"
     showgrid="true"
     units="px"
     inkscape:window-width="1291"
     inkscape:window-height="746"
     inkscape:window-x="-8"
     inkscape:window-y="-8"
     inkscape:window-maximized="1"
     inkscape:snap-bbox="true"
     inkscape:bbox-nodes="true"
     showborder="true"
     showguides="false"
     inkscape:object-nodes="false"
     fit-margin-top="16"
     fit-margin-left="16"
     fit-margin-right="16"
     fit-margin-bottom="16">
    <inkscape:grid
       type="xygrid"
       id="grid4136"
       spacingx="16"
       spacingy="16.000001"
       originx="463.99995"
       originy="15.999995"
       empcolor="#ff3f3f"
       empopacity="0.25098039"
       empspacing="4"
       enabled="true" />
  </sodipodi:namedview>
  <metadata
     id="metadata7">
    <rdf:RDF>
      <cc:Work
         rdf:about="">
        <dc:format>image/svg+xml</dc:format>
        <dc:type
           rdf:resource="http://purl.org/dc/dcmitype/StillImage" />
        <dc:title></dc:title>
      </cc:Work>
    </rdf:RDF>
  </metadata>
  <g
     inkscape:label="Layer 1"
     inkscape:groupmode="layer"
     id="layer1"
     transform="translate(335.99999,-588.36215)">
    <g
       id="g4768" />
    <g
       id="g4801">
      <g
         id="g4914"
         transform="translate(-288,-1.05e-5)">
        <path
           id="path4865"
           transform="translate(0,796.36216)"
           d="m -16,-64 a 16,16 0 0 0 -16,16 l 0,32 a 16,16 0 0 0 16,16 l 224,0 a 16,16 0 0 0 16,-16 l 0,-32 a 16,16 0 0 0 -16,-16 l -224,0 z"
           style="opacity:1;fill:#00b4ff;fill-opacity:1;fill-rule:nonzero;stroke:none;stroke-width:12;stroke-linecap:round;stroke-linejoin:round;stroke-miterlimit:4;stroke-dasharray:none;stroke-dashoffset:40;stroke-opacity:0.25098039"
           inkscape:connector-curvature="0" />
        <path
           id="path4887"
           transform="translate(0,796.36216)"
           d="m -16,-64 a 16,16 0 0 0 -16,16 l 0,32 a 16,16 0 0 0 16,16 l 224,0 a 16,16 0 0 0 16,-16 l 0,-32 a 16,16 0 0 0 -16,-16 l -224,0 z m 0,6 224,0 c 5.59392,0 10,4.40608 10,10 l 0,32 c 0,5.59392 -4.40608,10 -10,10 l -224,0 c -5.593915,0 -10,-4.40608 -10,-10 l 0,-32 c 0,-5.59392 4.406085,-10 10,-10 z"
           style="color:#000000;font-style:normal;font-variant:normal;font-weight:normal;font-stretch:normal;font-size:medium;line-height:normal;font-family:sans-serif;text-indent:0;text-align:start;text-decoration:none;text-decoration-line:none;text-decoration-style:solid;text-decoration-color:#000000;letter-spacing:normal;word-spacing:normal;text-transform:none;direction:ltr;block-progression:tb;writing-mode:lr-tb;baseline-shift:baseline;text-anchor:start;white-space:normal;clip-rule:nonzero;display:inline;overflow:visible;visibility:visible;opacity:1;isolation:auto;mix-blend-mode:normal;color-interpolation:sRGB;color-interpolation-filters:linearRGB;solid-color:#000000;solid-opacity:1;fill:#000000;fill-opacity:0.25098039;fill-rule:nonzero;stroke:none;stroke-width:12;stroke-linecap:round;stroke-linejoin:round;stroke-miterlimit:4;stroke-dasharray:none;stroke-dashoffset:40;stroke-opacity:1;color-rendering:auto;image-rendering:auto;shape-rendering:auto;text-rendering:auto;enable-background:accumulate"
           inkscape:connector-curvature="0" />
      </g>
      <g
         id="g4910"
         transform="translate(-288,-7.4999998e-6)">
        <path
           id="path4878"
           transform="translate(0,796.36216)"
           d="m -16,32 a 16,16 0 0 0 -16,16 16,16 0 0 0 16,16 l 32,0 A 16,16 0 0 0 32,48 16,16 0 0 0 16,32 l -32,0 z"
           style="opacity:1;fill:#00b4ff;fill-opacity:1;fill-rule:nonzero;stroke:none;stroke-width:12;stroke-linecap:round;stroke-linejoin:round;stroke-miterlimit:4;stroke-dasharray:none;stroke-dashoffset:40;stroke-opacity:0.25098039"
           inkscape:connector-curvature="0" />
        <path
           id="path4889"
           transform="translate(0,796.36216)"
           d="m -16,32 a 16,16 0 0 0 -16,16 16,16 0 0 0 16,16 l 32,0 A 16,16 0 0 0 32,48 16,16 0 0 0 16,32 l -32,0 z m 0,6 32,0 c 5.593915,0 10,4.40608 10,10 0,5.59392 -4.406085,10 -10,10 l -32,0 c -5.593915,0 -10,-4.40608 -10,-10 0,-5.59392 4.406085,-10 10,-10 z"
           style="color:#000000;font-style:normal;font-variant:normal;font-weight:normal;font-stretch:normal;font-size:medium;line-height:normal;font-family:sans-serif;text-indent:0;text-align:start;text-decoration:none;text-decoration-line:none;text-decoration-style:solid;text-decoration-color:#000000;letter-spacing:normal;word-spacing:normal;text-transform:none;direction:ltr;block-progression:tb;writing-mode:lr-tb;baseline-shift:baseline;text-anchor:start;white-space:normal;clip-rule:nonzero;display:inline;overflow:visible;visibility:visible;opacity:1;isolation:auto;mix-blend-mode:normal;color-interpolation:sRGB;color-interpolation-filters:linearRGB;solid-color:#000000;solid-opacity:1;fill:#000000;fill-opacity:0.25098039;fill-rule:nonzero;stroke:none;stroke-width:12;stroke-linecap:round;stroke-linejoin:round;stroke-miterlimit:4;stroke-dasharray:none;stroke-dashoffset:40;stroke-opacity:1;color-rendering:auto;image-rendering:auto;shape-rendering:auto;text-rendering:auto;enable-background:accumulate"
           inkscape:connector-curvature="0" />
      </g>
      <g
         id="g4938"
         transform="translate(-128,31.999998)">
        <path
           id="path4918"
           transform="translate(0,796.36216)"
           d="m -176,-224 a 16,16 0 0 0 -16,16 l 0,64 a 16,16 0 0 0 16,16 l 224,0 a 16,16 0 0 0 16,-16 l 0,-32 a 16,16 0 0 0 -16,-16 l -112,0 0,-16 a 16,16 0 0 0 -16,-16 l -96,0 z"
           style="opacity:1;fill:#00b4ff;fill-opacity:1;fill-rule:nonzero;stroke:none;stroke-width:12;stroke-linecap:round;stroke-linejoin:round;stroke-miterlimit:4;stroke-dasharray:none;stroke-dashoffset:40;stroke-opacity:0.25098039"
           inkscape:connector-curvature="0" />
        <path
           id="path4931"
           transform="translate(0,796.36216)"
           d="m -176,-224 a 16,16 0 0 0 -16,16 l 0,64 a 16,16 0 0 0 16,16 l 224,0 a 16,16 0 0 0 16,-16 l 0,-32 a 16,16 0 0 0 -16,-16 l -112,0 0,-16 a 16,16 0 0 0 -16,-16 l -96,0 z m 0,6 96,0 c 5.593915,0 10,4.40608 10,10 l 0,16 a 6.0006,6.0006 0 0 0 6,6 l 112,0 c 5.593915,0 10,4.40608 10,10 l 0,32 c 0,5.59392 -4.406085,10 -10,10 l -224,0 c -5.59392,0 -10,-4.40608 -10,-10 l 0,-64 c 0,-5.59392 4.40608,-10 10,-10 z"
           style="color:#000000;font-style:normal;font-variant:normal;font-weight:normal;font-stretch:normal;font-size:medium;line-height:normal;font-family:sans-serif;text-indent:0;text-align:start;text-decoration:none;text-decoration-line:none;text-decoration-style:solid;text-decoration-color:#000000;letter-spacing:normal;word-spacing:normal;text-transform:none;direction:ltr;block-progression:tb;writing-mode:lr-tb;baseline-shift:baseline;text-anchor:start;white-space:normal;clip-rule:nonzero;display:inline;overflow:visible;visibility:visible;opacity:1;isolation:auto;mix-blend-mode:normal;color-interpolation:sRGB;color-interpolation-filters:linearRGB;solid-color:#000000;solid-opacity:1;fill:#000000;fill-opacity:0.25098039;fill-rule:nonzero;stroke:none;stroke-width:12;stroke-linecap:round;stroke-linejoin:round;stroke-miterlimit:4;stroke-dasharray:none;stroke-dashoffset:40;stroke-opacity:1;color-rendering:auto;image-rendering:auto;shape-rendering:auto;text-rendering:auto;enable-background:accumulate"
           inkscape:connector-curvature="0" />
      </g>
      <g
         id="g4951"
         transform="translate(-192,32.000003)">
        <path
           inkscape:connector-curvature="0"
           id="path4942"
           d="m -32,812.36215 16,-16 32,0 16,16 -16,16 -32,0 z"
           style="opacity:1;fill:#00b4ff;fill-opacity:1;fill-rule:nonzero;stroke:none;stroke-width:12;stroke-linecap:round;stroke-linejoin:round;stroke-miterlimit:4;stroke-dasharray:none;stroke-dashoffset:40;stroke-opacity:0.25098039" />
        <path
           id="path4944"
           transform="translate(-336,588.36216)"
           d="m 320,208 -16,16 16,16 32,0 16,-16 -16,-16 -32,0 z m 2.48438,6 27.03124,0 10,10 -10,10 -27.03124,0 -10,-10 10,-10 z"
           style="color:#000000;font-style:normal;font-variant:normal;font-weight:normal;font-stretch:normal;font-size:medium;line-height:normal;font-family:sans-serif;text-indent:0;text-align:start;text-decoration:none;text-decoration-line:none;text-decoration-style:solid;text-decoration-color:#000000;letter-spacing:normal;word-spacing:normal;text-transform:none;direction:ltr;block-progression:tb;writing-mode:lr-tb;baseline-shift:baseline;text-anchor:start;white-space:normal;clip-rule:nonzero;display:inline;overflow:visible;visibility:visible;opacity:1;isolation:auto;mix-blend-mode:normal;color-interpolation:sRGB;color-interpolation-filters:linearRGB;solid-color:#000000;solid-opacity:1;fill:#000000;fill-opacity:0.25098039;fill-rule:nonzero;stroke:none;stroke-width:12;stroke-linecap:round;stroke-linejoin:round;stroke-miterlimit:4;stroke-dasharray:none;stroke-dashoffset:40;stroke-opacity:1;color-rendering:auto;image-rendering:auto;shape-rendering:auto;text-rendering:auto;enable-background:accumulate"
           inkscape:connector-curvature="0" />
      </g>
      <g
         id="g4964"
         transform="translate(288,-128.00001)">
        <path
           sodipodi:nodetypes="sssssssccsssss"
           inkscape:connector-curvature="0"
           style="opacity:1;fill:#00b4ff;fill-opacity:1;fill-rule:nonzero;stroke:none;stroke-width:12;stroke-linecap:round;stroke-linejoin:round;stroke-miterlimit:4;stroke-dasharray:none;stroke-dashoffset:40;stroke-opacity:0.25098039"
           d="m -304,732.36216 c -8.83656,0 -16,7.16344 -16,16 l 0,95.99999 c 0,8.83656 7.16344,16 16,16 l 224,0 c 8.836556,0 16,-7.16344 16,-16 0,-8.83655 -7.163444,-16 -16,-16 l -208,0 0,-31.99999 208,0 c 8.836556,0 16,-7.16344 16,-16 l 0,-32 c 0,-8.83656 -7.163444,-16 -16,-16 z"
           id="path4778" />
        <path
           id="path4957"
           transform="translate(-336,588.36216)"
           d="m 32,144 c -8.83656,0 -16,7.16344 -16,16 l 0,96 c 0,8.83656 7.16344,16 16,16 l 224,0 c 8.83656,0 16,-7.16344 16,-16 0,-8.83655 -7.16344,-16 -16,-16 l -208,0 0,-32 208,0 c 8.83656,0 16,-7.16344 16,-16 l 0,-32 c 0,-8.83656 -7.16344,-16 -16,-16 l -224,0 z m 0,6 224,0 c 5.59392,0 10,4.40608 10,10 l 0,32 c 0,5.59392 -4.40608,10 -10,10 l -208,0 a 6.0006,6.0006 0 0 0 -6,6 l 0,32 a 6.0006,6.0006 0 0 0 6,6 l 208,0 c 5.59391,0 10,4.40609 10,10 0,5.59392 -4.40608,10 -10,10 l -224,0 c -5.59392,0 -10,-4.40608 -10,-10 l 0,-96 c 0,-5.59392 4.40608,-10 10,-10 z"
           style="color:#000000;font-style:normal;font-variant:normal;font-weight:normal;font-stretch:normal;font-size:medium;line-height:normal;font-family:sans-serif;text-indent:0;text-align:start;text-decoration:none;text-decoration-line:none;text-decoration-style:solid;text-decoration-color:#000000;letter-spacing:normal;word-spacing:normal;text-transform:none;direction:ltr;block-progression:tb;writing-mode:lr-tb;baseline-shift:baseline;text-anchor:start;white-space:normal;clip-rule:nonzero;display:inline;overflow:visible;visibility:visible;opacity:1;isolation:auto;mix-blend-mode:normal;color-interpolation:sRGB;color-interpolation-filters:linearRGB;solid-color:#000000;solid-opacity:1;fill:#000000;fill-opacity:0.25098039;fill-rule:nonzero;stroke:none;stroke-width:12;stroke-linecap:round;stroke-linejoin:round;stroke-miterlimit:4;stroke-dasharray:none;stroke-dashoffset:40;stroke-opacity:1;color-rendering:auto;image-rendering:auto;shape-rendering:auto;text-rendering:auto;enable-background:accumulate"
           inkscape:connector-curvature="0" />
      </g>
      <g
         id="g4992">
        <path
           id="path4970"
           transform="translate(-336,588.36216)"
           d="m 320,176 a 16,16 0 0 0 -16,16 l 0,32 0,32 0,64 c 0,8.83656 7.16344,16 16,16 l 224,0 c 8.83656,0 16,-7.16344 16,-16 0,-8.83655 -7.16344,-16 -16,-16 l -208,0 0,-32 208,0 a 16,16 0 0 0 1.59766,-0.0801 c 2.1836,-0.21644 4.23635,-0.87395 6.07226,-1.8789 0.45771,-0.25054 0.90094,-0.52186 1.33008,-0.81446 a 16,16 0 0 0 0.41602,-0.31054 c 0.27964,-0.20424 0.56068,-0.40738 0.82617,-0.62891 a 16,16 0 0 0 0.45312,-0.41211 c 0.23951,-0.21585 0.48097,-0.42842 0.70703,-0.6582 a 16,16 0 0 0 0.42774,-0.47071 c 0.20773,-0.22856 0.41694,-0.45497 0.61133,-0.69531 a 16,16 0 0 0 0.38476,-0.51562 c 0.18927,-0.25416 0.37852,-0.50798 0.55274,-0.77344 a 16,16 0 0 0 0.30468,-0.50195 c 0.17036,-0.28159 0.33906,-0.56289 0.49219,-0.85547 a 16,16 0 0 0 0.25586,-0.5293 c 0.14633,-0.30659 0.289,-0.61465 0.41602,-0.93164 a 16,16 0 0 0 0.17773,-0.48633 c 0.12226,-0.33645 0.23995,-0.67494 0.33984,-1.02148 a 16,16 0 0 0 0.13282,-0.51953 c 0.083,-0.32927 0.16237,-0.65907 0.22461,-0.9961 a 16,16 0 0 0 0.0996,-0.6582 c 0.0427,-0.30116 0.0837,-0.60189 0.10937,-0.9082 A 16,16 0 0 0 560,256 l 0,-32 a 16,16 0 0 0 -0.0801,-1.59766 c -0.0531,-0.53591 -0.1336,-1.06299 -0.23828,-1.58203 -0.32185,-1.5958 -0.88232,-3.1049 -1.64062,-4.49023 -0.25054,-0.45771 -0.52186,-0.90094 -0.81446,-1.33008 a 16,16 0 0 0 -0.31054,-0.41602 c -0.20424,-0.27964 -0.40738,-0.56068 -0.62891,-0.82617 a 16,16 0 0 0 -0.41211,-0.45312 c -0.21585,-0.23951 -0.42842,-0.48097 -0.6582,-0.70703 a 16,16 0 0 0 -0.47071,-0.42774 c -0.22856,-0.20773 -0.45497,-0.41694 -0.69531,-0.61133 a 16,16 0 0 0 -0.51562,-0.38476 c -0.25416,-0.18927 -0.50798,-0.37852 -0.77344,-0.55274 a 16,16 0 0 0 -0.50195,-0.30468 c -0.28159,-0.17036 -0.56289,-0.33906 -0.85547,-0.49219 a 16,16 0 0 0 -0.5293,-0.25586 c -0.30659,-0.14633 -0.61465,-0.289 -0.93164,-0.41602 a 16,16 0 0 0 -0.48633,-0.17773 c -0.33645,-0.12226 -0.67494,-0.23995 -1.02148,-0.33984 a 16,16 0 0 0 -0.51953,-0.13282 c -0.32927,-0.083 -0.65907,-0.16237 -0.9961,-0.22461 a 16,16 0 0 0 -0.6582,-0.0996 c -0.30116,-0.0427 -0.60189,-0.0837 -0.9082,-0.10937 A 16,16 0 0 0 544,208 l -112,0 0,-16 a 16,16 0 0 0 -16,-16 l -96,0 z"
           style="opacity:1;fill:#00b4ff;fill-opacity:1;fill-rule:nonzero;stroke:none;stroke-width:12;stroke-linecap:round;stroke-linejoin:round;stroke-miterlimit:4;stroke-dasharray:none;stroke-dashoffset:40;stroke-opacity:0.25098039"
           inkscape:connector-curvature="0" />
        <path
           id="path4985"
           transform="translate(-336,588.36216)"
           d="m 320,176 a 16,16 0 0 0 -16,16 l 0,32 0,32 0,64 c 0,8.83656 7.16344,16 16,16 l 224,0 c 8.83656,0 16,-7.16344 16,-16 0,-8.83655 -7.16344,-16 -16,-16 l -208,0 0,-32 208,0 a 16,16 0 0 0 1.59766,-0.0801 c 2.1836,-0.21644 4.23635,-0.87395 6.07226,-1.8789 0.45771,-0.25054 0.90094,-0.52186 1.33008,-0.81446 a 16,16 0 0 0 0.41602,-0.31054 c 0.27964,-0.20424 0.56068,-0.40738 0.82617,-0.62891 a 16,16 0 0 0 0.45312,-0.41211 c 0.23951,-0.21585 0.48097,-0.42842 0.70703,-0.6582 a 16,16 0 0 0 0.42774,-0.47071 c 0.20773,-0.22856 0.41694,-0.45497 0.61133,-0.69531 a 16,16 0 0 0 0.38476,-0.51562 c 0.18927,-0.25416 0.37852,-0.50798 0.55274,-0.77344 a 16,16 0 0 0 0.30468,-0.50195 c 0.17036,-0.28159 0.33906,-0.56289 0.49219,-0.85547 a 16,16 0 0 0 0.25586,-0.5293 c 0.14633,-0.30659 0.289,-0.61465 0.41602,-0.93164 a 16,16 0 0 0 0.17773,-0.48633 c 0.12226,-0.33645 0.23995,-0.67494 0.33984,-1.02148 a 16,16 0 0 0 0.13282,-0.51953 c 0.083,-0.32927 0.16237,-0.65907 0.22461,-0.9961 a 16,16 0 0 0 0.0996,-0.6582 c 0.0427,-0.30116 0.0837,-0.60189 0.10937,-0.9082 A 16,16 0 0 0 560,256 l 0,-32 a 16,16 0 0 0 -0.0801,-1.59766 c -0.0531,-0.53591 -0.1336,-1.06299 -0.23828,-1.58203 -0.32185,-1.5958 -0.88232,-3.1049 -1.64062,-4.49023 -0.25054,-0.45771 -0.52186,-0.90094 -0.81446,-1.33008 a 16,16 0 0 0 -0.31054,-0.41602 c -0.20424,-0.27964 -0.40738,-0.56068 -0.62891,-0.82617 a 16,16 0 0 0 -0.41211,-0.45312 c -0.21585,-0.23951 -0.42842,-0.48097 -0.6582,-0.70703 a 16,16 0 0 0 -0.47071,-0.42774 c -0.22856,-0.20773 -0.45497,-0.41694 -0.69531,-0.61133 a 16,16 0 0 0 -0.51562,-0.38476 c -0.25416,-0.18927 -0.50798,-0.37852 -0.77344,-0.55274 a 16,16 0 0 0 -0.50195,-0.30468 c -0.28159,-0.17036 -0.56289,-0.33906 -0.85547,-0.49219 a 16,16 0 0 0 -0.5293,-0.25586 c -0.30659,-0.14633 -0.61465,-0.289 -0.93164,-0.41602 a 16,16 0 0 0 -0.48633,-0.17773 c -0.33645,-0.12226 -0.67494,-0.23995 -1.02148,-0.33984 a 16,16 0 0 0 -0.51953,-0.13282 c -0.32927,-0.083 -0.65907,-0.16237 -0.9961,-0.22461 a 16,16 0 0 0 -0.6582,-0.0996 c -0.30116,-0.0427 -0.60189,-0.0837 -0.9082,-0.10937 A 16,16 0 0 0 544,208 l -112,0 0,-16 a 16,16 0 0 0 -16,-16 l -96,0 z m 0,6 96,0 c 5.59392,0 10,4.40608 10,10 l 0,16 a 6.0006,6.0006 0 0 0 6,6 l 111.95117,0 c 0.28246,0.002 0.56444,0.0168 0.84571,0.043 a 6.0006,6.0006 0 0 0 0.0547,0.004 c 0.10346,0.009 0.28936,0.0327 0.56836,0.0723 a 6.0006,6.0006 0 0 0 0.0684,0.008 c 0.12051,0.0157 0.23952,0.0346 0.35938,0.0547 0.12908,0.0243 0.32212,0.0682 0.60156,0.13867 a 6.0006,6.0006 0 0 0 0.0781,0.0195 c 0.0898,0.0213 0.17845,0.0445 0.26758,0.0684 0.14027,0.0411 0.33895,0.10539 0.61328,0.20508 a 6.0006,6.0006 0 0 0 0.0801,0.0293 c 0.0743,0.0258 0.14895,0.0525 0.22266,0.0801 0.005,0.002 0.0102,0.006 0.0156,0.008 0.1232,0.0499 0.30696,0.12906 0.56446,0.25195 a 6.0006,6.0006 0 0 0 0.0723,0.0352 c 0.094,0.0433 0.18666,0.0885 0.2793,0.13476 0.0915,0.0486 0.25399,0.14096 0.51172,0.29688 a 6.0006,6.0006 0 0 0 0.0859,0.0527 c 0.0848,0.0494 0.16865,0.10051 0.25196,0.15235 0.0714,0.0478 0.21552,0.15072 0.45898,0.33203 a 6.0006,6.0006 0 0 0 0.0937,0.0684 c 0.0867,0.062 0.17122,0.12667 0.25586,0.1914 0.0454,0.0379 0.17111,0.14602 0.41016,0.36329 a 6.0006,6.0006 0 0 0 0.0898,0.0801 c 0.0811,0.0708 0.15956,0.14346 0.23828,0.2168 0.0386,0.0397 0.14945,0.1614 0.37891,0.41602 a 6.0006,6.0006 0 0 0 0.0957,0.10351 c 0.0658,0.0696 0.12957,0.14138 0.19336,0.21289 0.0516,0.064 0.16264,0.20966 0.36328,0.48438 a 6.0006,6.0006 0 0 0 0.0957,0.12695 c 0.0426,0.0552 0.0836,0.11194 0.125,0.16797 0.17278,0.25578 0.33542,0.51729 0.48632,0.79297 0.47499,0.86775 0.82355,1.8038 1.02344,2.79492 0.0669,0.3316 0.1159,0.66005 0.14844,0.98828 a 6.0006,6.0006 0 0 0 0,0.008 C 553.98252,223.33376 554,223.66653 554,224 l 0,31.95117 c -0.002,0.28246 -0.0168,0.56444 -0.043,0.84571 a 6.0006,6.0006 0 0 0 -0.004,0.0547 c -0.009,0.10346 -0.0327,0.28936 -0.0723,0.56836 a 6.0006,6.0006 0 0 0 -0.008,0.0684 c -0.0157,0.12051 -0.0346,0.23952 -0.0547,0.35938 -0.0243,0.12908 -0.0682,0.32212 -0.13867,0.60156 a 6.0006,6.0006 0 0 0 -0.0195,0.0781 c -0.0213,0.0898 -0.0445,0.17845 -0.0684,0.26758 -0.0411,0.14027 -0.10539,0.33895 -0.20508,0.61328 a 6.0006,6.0006 0 0 0 -0.0293,0.0801 c -0.0258,0.0743 -0.0525,0.14895 -0.0801,0.22266 -0.002,0.005 -0.006,0.0102 -0.008,0.0156 -0.0499,0.1232 -0.12906,0.30696 -0.25195,0.56446 a 6.0006,6.0006 0 0 0 -0.0352,0.0723 c -0.0433,0.094 -0.0885,0.18666 -0.13476,0.2793 -0.0486,0.0915 -0.14096,0.25399 -0.29688,0.51172 a 6.0006,6.0006 0 0 0 -0.0527,0.0859 c -0.0494,0.0848 -0.10051,0.16865 -0.15235,0.25196 -0.0478,0.0714 -0.15072,0.21552 -0.33203,0.45898 a 6.0006,6.0006 0 0 0 -0.0684,0.0937 c -0.062,0.0867 -0.12667,0.17122 -0.1914,0.25586 -0.0379,0.0454 -0.14601,0.17111 -0.36329,0.41016 a 6.0006,6.0006 0 0 0 -0.0801,0.0898 c -0.0708,0.0811 -0.14346,0.15956 -0.2168,0.23828 -0.0397,0.0386 -0.1614,0.14945 -0.41602,0.37891 a 6.0006,6.0006 0 0 0 -0.10351,0.0957 c -0.0696,0.0658 -0.14138,0.12957 -0.21289,0.19336 -0.064,0.0516 -0.20966,0.16264 -0.48438,0.36328 a 6.0006,6.0006 0 0 0 -0.12695,0.0957 c -0.0552,0.0426 -0.11194,0.0836 -0.16797,0.125 -0.25578,0.17278 -0.51729,0.33542 -0.79297,0.48632 -1.15043,0.62974 -2.41922,1.03668 -3.7832,1.17188 a 6.0006,6.0006 0 0 0 -0.008,0 C 544.66624,265.98252 544.33347,266 544,266 l -208,0 a 6.0006,6.0006 0 0 0 -6,6 l 0,32 a 6.0006,6.0006 0 0 0 6,6 l 208,0 c 5.59392,0 10,4.40609 10,10 0,5.59392 -4.40608,10 -10,10 l -224,0 c -5.59392,0 -10,-4.40608 -10,-10 l 0,-64 0,-32 0,-32 c 0,-5.59392 4.40608,-10 10,-10 z"
           style="color:#000000;font-style:normal;font-variant:normal;font-weight:normal;font-stretch:normal;font-size:medium;line-height:normal;font-family:sans-serif;text-indent:0;text-align:start;text-decoration:none;text-decoration-line:none;text-decoration-style:solid;text-decoration-color:#000000;letter-spacing:normal;word-spacing:normal;text-transform:none;direction:ltr;block-progression:tb;writing-mode:lr-tb;baseline-shift:baseline;text-anchor:start;white-space:normal;clip-rule:nonzero;display:inline;overflow:visible;visibility:visible;opacity:1;isolation:auto;mix-blend-mode:normal;color-interpolation:sRGB;color-interpolation-filters:linearRGB;solid-color:#000000;solid-opacity:1;fill:#000000;fill-opacity:0.25098039;fill-rule:nonzero;stroke:none;stroke-width:12;stroke-linecap:round;stroke-linejoin:round;stroke-miterlimit:4;stroke-dasharray:none;stroke-dashoffset:40;stroke-opacity:1;color-rendering:auto;image-rendering:auto;shape-rendering:auto;text-rendering:auto;enable-background:accumulate"
           inkscape:connector-curvature="0" />
      </g>
    </g>
  </g>
</svg>
