<?xml version="1.0" encoding="UTF-8" standalone="no"?>
<!-- Created with Inkscape (http://www.inkscape.org/) -->

<svg
   xmlns:dc="http://purl.org/dc/elements/1.1/"
   xmlns:cc="http://creativecommons.org/ns#"
   xmlns:rdf="http://www.w3.org/1999/02/22-rdf-syntax-ns#"
   xmlns:svg="http://www.w3.org/2000/svg"
   xmlns="http://www.w3.org/2000/svg"
   xmlns:sodipodi="http://sodipodi.sourceforge.net/DTD/sodipodi-0.dtd"
   xmlns:inkscape="http://www.inkscape.org/namespaces/inkscape"
   width="656"
   height="352.00003"
   viewBox="0 0 656 352.00004"
   id="svg2"
   version="1.1"
   inkscape:version="0.91 r13725"
   sodipodi:docname="BlockExample.svg">
  <defs
     id="defs4" />
  <sodipodi:namedview
     id="base"
     pagecolor="#ffffff"
     bordercolor="#666666"
     borderopacity="1.0"
     inkscape:pageopacity="0.0"
     inkscape:pageshadow="2"
     inkscape:zoom="4.2727273"
     inkscape:cx="633.5"
     inkscape:cy="176.5"
     inkscape:document-units="px"
     inkscape:current-layer="layer1"
     showgrid="true"
     units="px"
     inkscape:window-width="1291"
     inkscape:window-height="746"
     inkscape:window-x="-8"
     inkscape:window-y="-8"
     inkscape:window-maximized="1"
     inkscape:snap-bbox="true"
     inkscape:bbox-nodes="true"
     showborder="true"
     inkscape:object-nodes="true"
     inkscape:snap-smooth-nodes="true"
     inkscape:snap-intersection-paths="false"
     fit-margin-top="16"
     fit-margin-left="16"
     fit-margin-right="16"
     fit-margin-bottom="16">
    <inkscape:grid
       type="xygrid"
       id="grid4136"
       spacingx="16"
       spacingy="16.000001"
       originx="144"
       originy="208.00004"
       empcolor="#ff3f3f"
       empopacity="0.25098039"
       empspacing="4" />
  </sodipodi:namedview>
  <metadata
     id="metadata7">
    <rdf:RDF>
      <cc:Work
         rdf:about="">
        <dc:format>image/svg+xml</dc:format>
        <dc:type
           rdf:resource="http://purl.org/dc/dcmitype/StillImage" />
        <dc:title></dc:title>
      </cc:Work>
    </rdf:RDF>
  </metadata>
  <g
     inkscape:label="Layer 1"
     inkscape:groupmode="layer"
     id="layer1"
     transform="translate(16,-780.36216)">
    <g
       id="g5774">
      <path
         id="path4918"
         transform="translate(0,796.36216)"
         d="M 16,0 C 7.163444,0 0,7.163444 0,16 l 0,48 0,16 0,16 16,0 224,0 a 16,16 0 0 0 16,-16 l 0,-16 0,-16 c 0,-8.836556 -7.16344,-16 -16,-16 l -112,0 0,-16 C 128,7.163444 120.83656,0 112,0 L 16,0 Z"
         style="opacity:1;fill:#b06500;fill-opacity:1;fill-rule:nonzero;stroke:none;stroke-width:12;stroke-linecap:round;stroke-linejoin:round;stroke-miterlimit:4;stroke-dasharray:none;stroke-dashoffset:40;stroke-opacity:0.25098039"
         inkscape:connector-curvature="0" />
      <path
         id="path5663"
         transform="translate(0,796.36216)"
         d="M 16,0 C 7.163444,0 0,7.163444 0,16 l 0,48 0,16 0,16 16,0 224,0 a 16,16 0 0 0 16,-16 l 0,-16 0,-16 c 0,-8.836556 -7.16344,-16 -16,-16 l -112,0 0,-16 C 128,7.163444 120.83656,0 112,0 L 16,0 Z m 0,6 96,0 c 5.59392,0 10,4.40608 10,10 l 0,16 a 6.0006,6.0006 0 0 0 6,6 l 112,0 c 5.59392,0 10,4.40608 10,10 l 0,16 0,16 c 0,5.59392 -4.40608,10 -10,10 L 16,90 6,90 6,80 6,64 6,16 C 6,10.40608 10.406085,6 16,6 Z"
         style="color:#000000;font-style:normal;font-variant:normal;font-weight:normal;font-stretch:normal;font-size:medium;line-height:normal;font-family:sans-serif;text-indent:0;text-align:start;text-decoration:none;text-decoration-line:none;text-decoration-style:solid;text-decoration-color:#000000;letter-spacing:normal;word-spacing:normal;text-transform:none;direction:ltr;block-progression:tb;writing-mode:lr-tb;baseline-shift:baseline;text-anchor:start;white-space:normal;clip-rule:nonzero;display:inline;overflow:visible;visibility:visible;opacity:1;isolation:auto;mix-blend-mode:normal;color-interpolation:sRGB;color-interpolation-filters:linearRGB;solid-color:#000000;solid-opacity:1;fill:#000000;fill-opacity:0.25098039;fill-rule:nonzero;stroke:none;stroke-width:12;stroke-linecap:round;stroke-linejoin:round;stroke-miterlimit:4;stroke-dasharray:none;stroke-dashoffset:40;stroke-opacity:1;color-rendering:auto;image-rendering:auto;shape-rendering:auto;text-rendering:auto;enable-background:accumulate"
         inkscape:connector-curvature="0" />
    </g>
    <g
       id="g5778">
      <path
         sodipodi:nodetypes="ccccccssssccc"
         inkscape:connector-curvature="0"
         id="path4865"
         transform="translate(0,796.36216)"
         d="m 0,96 0,16 0,32 0,16 16,0 16,0 256,0 c 8.83656,0 16,-7.16344 16,-16 l 0,-32 c 0,-8.83655 -7.16344,-15.999995 -16,-15.999995 L 32,96 16,96 Z"
         style="opacity:1;fill:#ff8900;fill-opacity:1;fill-rule:nonzero;stroke:none;stroke-width:12;stroke-linecap:round;stroke-linejoin:round;stroke-miterlimit:4;stroke-dasharray:none;stroke-dashoffset:40;stroke-opacity:0.25098039" />
      <path
         id="path5665"
         transform="translate(0,796.36216)"
         d="m 0,96 0,16 0,32 0,16 16,0 16,0 256,0 c 8.83656,0 16,-7.16344 16,-16 l 0,-32 c 0,-8.83655 -7.16344,-16 -16,-16 L 32,96 16,96 0,96 Z m 6,6 10,0 16,0 256,0 c 5.59392,0 10,4.40609 10,10 l 0,32 c 0,5.59392 -4.40608,10 -10,10 l -256,0 -16,0 -10,0 0,-10 0,-32 0,-10 z"
         style="color:#000000;font-style:normal;font-variant:normal;font-weight:normal;font-stretch:normal;font-size:medium;line-height:normal;font-family:sans-serif;text-indent:0;text-align:start;text-decoration:none;text-decoration-line:none;text-decoration-style:solid;text-decoration-color:#000000;letter-spacing:normal;word-spacing:normal;text-transform:none;direction:ltr;block-progression:tb;writing-mode:lr-tb;baseline-shift:baseline;text-anchor:start;white-space:normal;clip-rule:nonzero;display:inline;overflow:visible;visibility:visible;opacity:1;isolation:auto;mix-blend-mode:normal;color-interpolation:sRGB;color-interpolation-filters:linearRGB;solid-color:#000000;solid-opacity:1;fill:#000000;fill-opacity:0.25098039;fill-rule:nonzero;stroke:none;stroke-width:12;stroke-linecap:round;stroke-linejoin:round;stroke-miterlimit:4;stroke-dasharray:none;stroke-dashoffset:40;stroke-opacity:1;color-rendering:auto;image-rendering:auto;shape-rendering:auto;text-rendering:auto;enable-background:accumulate"
         inkscape:connector-curvature="0" />
    </g>
    <g
       id="g5782">
      <path
         id="path5620"
         transform="translate(0,796.36216)"
         d="m 32,224 0,64 240,0 a 16,16 0 0 0 16,-16 l 0,-32 a 16,16 0 0 0 -16,-16 l -240,0 z"
         style="opacity:1;fill:#00b4ff;fill-opacity:1;fill-rule:nonzero;stroke:none;stroke-width:12;stroke-linecap:round;stroke-linejoin:round;stroke-miterlimit:4;stroke-dasharray:none;stroke-dashoffset:40;stroke-opacity:0.25098039"
         inkscape:connector-curvature="0" />
      <path
         id="path5669"
         transform="translate(0,796.36216)"
         d="m 32,224 0,64 240,0 a 16,16 0 0 0 16,-16 l 0,-32 a 16,16 0 0 0 -16,-16 l -240,0 z m 6,6 234,0 c 5.59392,0 10,4.406 10,10 l 0,32 c 0,5.5939 -4.40608,10 -10,10 l -234,0 0,-52 z"
         style="color:#000000;font-style:normal;font-variant:normal;font-weight:normal;font-stretch:normal;font-size:medium;line-height:normal;font-family:sans-serif;text-indent:0;text-align:start;text-decoration:none;text-decoration-line:none;text-decoration-style:solid;text-decoration-color:#000000;letter-spacing:normal;word-spacing:normal;text-transform:none;direction:ltr;block-progression:tb;writing-mode:lr-tb;baseline-shift:baseline;text-anchor:start;white-space:normal;clip-rule:nonzero;display:inline;overflow:visible;visibility:visible;opacity:1;isolation:auto;mix-blend-mode:normal;color-interpolation:sRGB;color-interpolation-filters:linearRGB;solid-color:#000000;solid-opacity:1;fill:#000000;fill-opacity:0.25098039;fill-rule:nonzero;stroke:none;stroke-width:12;stroke-linecap:round;stroke-linejoin:round;stroke-miterlimit:4;stroke-dasharray:none;stroke-dashoffset:40;stroke-opacity:1;color-rendering:auto;image-rendering:auto;shape-rendering:auto;text-rendering:auto;enable-background:accumulate"
         inkscape:connector-curvature="0" />
    </g>
    <g
       id="g5770">
      <path
         sodipodi:nodetypes="ssccsssssccsssscsss"
         inkscape:connector-curvature="0"
         id="path4970"
         transform="translate(0,796.36216)"
         d="m 352,0 c -8.83656,0 -16,7.16344 -16,16 l 0,32 0,32 0,160.00001 c 0,8.83656 7.16344,16 16,16 l 224,0 c 8.83656,0 16,-7.16344 16,-16 0,-8.83655 -7.16344,-16 -16,-16 l -208,0 L 368,96 576,96 c 8.83656,0 16,-7.163444 16,-16 l 0,-32 c 0,-8.836556 -7.16344,-16 -16,-16 l -112,0 0,-16 C 464,7.16344 456.83656,0 448,0 Z"
         style="opacity:1;fill:#00b4ff;fill-opacity:1;fill-rule:nonzero;stroke:none;stroke-width:12;stroke-linecap:round;stroke-linejoin:round;stroke-miterlimit:4;stroke-dasharray:none;stroke-dashoffset:40;stroke-opacity:0.25098039" />
      <path
         id="path5671"
         transform="translate(0,796.36216)"
         d="m 352,0 c -8.83656,0 -16,7.16344 -16,16 l 0,32 0,32 0,160 c 0,8.83656 7.16344,16 16,16 l 224,0 c 8.83656,0 16,-7.16344 16,-16 0,-8.83655 -7.16344,-16 -16,-16 l -208,0 0,-128 208,0 c 8.83656,0 16,-7.163444 16,-16 l 0,-32 c 0,-8.836556 -7.16344,-16 -16,-16 l -112,0 0,-16 C 464,7.16344 456.83656,0 448,0 l -96,0 z m 0,6 96,0 c 5.59392,0 10,4.40608 10,10 l 0,16 a 6.0006,6.0006 0 0 0 6,6 l 112,0 c 5.59392,0 10,4.40608 10,10 l 0,32 c 0,5.59392 -4.40608,10 -10,10 l -208,0 a 6.0006,6.0006 0 0 0 -6,6 l 0,128 a 6.0006,6.0006 0 0 0 6,6 l 208,0 c 5.59392,0 10,4.4061 10,10 0,5.5939 -4.40608,10 -10,10 l -224,0 c -5.59392,0 -10,-4.4061 -10,-10 l 0,-160 0,-32 0,-32 c 0,-5.59392 4.40608,-10 10,-10 z"
         style="color:#000000;font-style:normal;font-variant:normal;font-weight:normal;font-stretch:normal;font-size:medium;line-height:normal;font-family:sans-serif;text-indent:0;text-align:start;text-decoration:none;text-decoration-line:none;text-decoration-style:solid;text-decoration-color:#000000;letter-spacing:normal;word-spacing:normal;text-transform:none;direction:ltr;block-progression:tb;writing-mode:lr-tb;baseline-shift:baseline;text-anchor:start;white-space:normal;clip-rule:nonzero;display:inline;overflow:visible;visibility:visible;opacity:1;isolation:auto;mix-blend-mode:normal;color-interpolation:sRGB;color-interpolation-filters:linearRGB;solid-color:#000000;solid-opacity:1;fill:#000000;fill-opacity:0.25098039;fill-rule:nonzero;stroke:none;stroke-width:12;stroke-linecap:round;stroke-linejoin:round;stroke-miterlimit:4;stroke-dasharray:none;stroke-dashoffset:40;stroke-opacity:1;color-rendering:auto;image-rendering:auto;shape-rendering:auto;text-rendering:auto;enable-background:accumulate"
         inkscape:connector-curvature="0" />
    </g>
    <g
       id="g5762">
      <path
         inkscape:connector-curvature="0"
         style="opacity:1;fill:#f1ff3d;fill-opacity:1;fill-rule:nonzero;stroke:none;stroke-width:12;stroke-linecap:round;stroke-linejoin:round;stroke-miterlimit:4;stroke-dasharray:none;stroke-dashoffset:40;stroke-opacity:0.25098039"
         d="m 368,892.36216 0,64 240,0 a 16,16 0 0 0 16,-16 l 0,-32 a 16,16 0 0 0 -16,-16 l -240,0 z"
         id="path5656" />
      <path
         id="path5673"
         transform="translate(0,796.36216)"
         d="m 368,96 0,64 240,0 a 16,16 0 0 0 16,-16 l 0,-32 A 16,16 0 0 0 608,96 l -240,0 z m 6,6 234,0 c 5.59392,0 10,4.40608 10,10 l 0,32 c 0,5.59391 -4.40608,10 -10,10 l -234,0 0,-52 z"
         style="color:#000000;font-style:normal;font-variant:normal;font-weight:normal;font-stretch:normal;font-size:medium;line-height:normal;font-family:sans-serif;text-indent:0;text-align:start;text-decoration:none;text-decoration-line:none;text-decoration-style:solid;text-decoration-color:#000000;letter-spacing:normal;word-spacing:normal;text-transform:none;direction:ltr;block-progression:tb;writing-mode:lr-tb;baseline-shift:baseline;text-anchor:start;white-space:normal;clip-rule:nonzero;display:inline;overflow:visible;visibility:visible;opacity:1;isolation:auto;mix-blend-mode:normal;color-interpolation:sRGB;color-interpolation-filters:linearRGB;solid-color:#000000;solid-opacity:1;fill:#000000;fill-opacity:0.25098039;fill-rule:nonzero;stroke:none;stroke-width:12;stroke-linecap:round;stroke-linejoin:round;stroke-miterlimit:4;stroke-dasharray:none;stroke-dashoffset:40;stroke-opacity:1;color-rendering:auto;image-rendering:auto;shape-rendering:auto;text-rendering:auto;enable-background:accumulate"
         inkscape:connector-curvature="0" />
    </g>
    <g
       id="g5766">
      <path
         sodipodi:nodetypes="ccssssc"
         id="path5658"
         d="m 368,956.36217 0,64.00003 176,0 c 8.83656,0 16,-7.1634 16,-16 l 0,-32.00003 c 0,-8.83656 -7.16344,-16 -16,-16 z"
         style="opacity:1;fill:#2bf8ff;fill-opacity:1;fill-rule:nonzero;stroke:none;stroke-width:12;stroke-linecap:round;stroke-linejoin:round;stroke-miterlimit:4;stroke-dasharray:none;stroke-dashoffset:40;stroke-opacity:0.25098039"
         inkscape:connector-curvature="0" />
      <path
         id="path5675"
         transform="translate(0,796.36216)"
         d="m 368,160 0,64 176,0 c 8.83656,0 16,-7.1634 16,-16 l 0,-32 c 0,-8.83656 -7.16344,-16 -16,-16 l -176,0 z m 6,6 170,0 c 5.59392,0 10,4.40608 10,10 l 0,32 c 0,5.594 -4.40606,10 -10,10 l -170,0 0,-52 z"
         style="color:#000000;font-style:normal;font-variant:normal;font-weight:normal;font-stretch:normal;font-size:medium;line-height:normal;font-family:sans-serif;text-indent:0;text-align:start;text-decoration:none;text-decoration-line:none;text-decoration-style:solid;text-decoration-color:#000000;letter-spacing:normal;word-spacing:normal;text-transform:none;direction:ltr;block-progression:tb;writing-mode:lr-tb;baseline-shift:baseline;text-anchor:start;white-space:normal;clip-rule:nonzero;display:inline;overflow:visible;visibility:visible;opacity:1;isolation:auto;mix-blend-mode:normal;color-interpolation:sRGB;color-interpolation-filters:linearRGB;solid-color:#000000;solid-opacity:1;fill:#000000;fill-opacity:0.25098039;fill-rule:nonzero;stroke:none;stroke-width:12;stroke-linecap:round;stroke-linejoin:round;stroke-miterlimit:4;stroke-dasharray:none;stroke-dashoffset:40;stroke-opacity:1;color-rendering:auto;image-rendering:auto;shape-rendering:auto;text-rendering:auto;enable-background:accumulate"
         inkscape:connector-curvature="0" />
    </g>
    <g
       id="g5758">
      <path
         id="path5677"
         transform="translate(0,796.36216)"
         d="m 512,48 a 16,16 0 0 0 -16,16 16,16 0 0 0 16,16 l 48,0 A 16,16 0 0 0 576,64 16,16 0 0 0 560,48 l -48,0 z"
         style="opacity:1;fill:#00de17;fill-opacity:1;fill-rule:nonzero;stroke:none;stroke-width:12;stroke-linecap:round;stroke-linejoin:round;stroke-miterlimit:4;stroke-dasharray:none;stroke-dashoffset:40;stroke-opacity:0.25098039"
         inkscape:connector-curvature="0" />
      <path
         id="path5684"
         transform="translate(0,796.36216)"
         d="m 512,48 a 16,16 0 0 0 -16,16 16,16 0 0 0 16,16 l 48,0 A 16,16 0 0 0 576,64 16,16 0 0 0 560,48 l -48,0 z m 0,6 48,0 c 5.59392,0 10,4.40608 10,10 0,5.59392 -4.40608,10 -10,10 l -48,0 c -5.59392,0 -10,-4.40608 -10,-10 0,-5.59392 4.40608,-10 10,-10 z"
         style="color:#000000;font-style:normal;font-variant:normal;font-weight:normal;font-stretch:normal;font-size:medium;line-height:normal;font-family:sans-serif;text-indent:0;text-align:start;text-decoration:none;text-decoration-line:none;text-decoration-style:solid;text-decoration-color:#000000;letter-spacing:normal;word-spacing:normal;text-transform:none;direction:ltr;block-progression:tb;writing-mode:lr-tb;baseline-shift:baseline;text-anchor:start;white-space:normal;clip-rule:nonzero;display:inline;overflow:visible;visibility:visible;opacity:1;isolation:auto;mix-blend-mode:normal;color-interpolation:sRGB;color-interpolation-filters:linearRGB;solid-color:#000000;solid-opacity:1;fill:#000000;fill-opacity:0.25098039;fill-rule:nonzero;stroke:none;stroke-width:12;stroke-linecap:round;stroke-linejoin:round;stroke-miterlimit:4;stroke-dasharray:none;stroke-dashoffset:40;stroke-opacity:1;color-rendering:auto;image-rendering:auto;shape-rendering:auto;text-rendering:auto;enable-background:accumulate"
         inkscape:connector-curvature="0" />
    </g>
    <g
       id="g5754">
      <path
         inkscape:connector-curvature="0"
         id="path5745"
         d="m 544,988.36217 -16,-16 -32,0 -16,16 16,16.00003 32,0 z"
         style="opacity:1;fill:#00de17;fill-opacity:1;fill-rule:nonzero;stroke:none;stroke-width:12;stroke-linecap:round;stroke-linejoin:round;stroke-miterlimit:4;stroke-dasharray:none;stroke-dashoffset:40;stroke-opacity:0.25098039" />
      <path
         id="path5747"
         transform="translate(0,796.36216)"
         d="m 496,176 -16,16 16,16 32,0 16,-16 -16,-16 -32,0 z m 2.48438,6 27.03124,0 10,10 -10,10 -27.03124,0 -10,-10 10,-10 z"
         style="color:#000000;font-style:normal;font-variant:normal;font-weight:normal;font-stretch:normal;font-size:medium;line-height:normal;font-family:sans-serif;text-indent:0;text-align:start;text-decoration:none;text-decoration-line:none;text-decoration-style:solid;text-decoration-color:#000000;letter-spacing:normal;word-spacing:normal;text-transform:none;direction:ltr;block-progression:tb;writing-mode:lr-tb;baseline-shift:baseline;text-anchor:start;white-space:normal;clip-rule:nonzero;display:inline;overflow:visible;visibility:visible;opacity:1;isolation:auto;mix-blend-mode:normal;color-interpolation:sRGB;color-interpolation-filters:linearRGB;solid-color:#000000;solid-opacity:1;fill:#000000;fill-opacity:0.25098039;fill-rule:nonzero;stroke:none;stroke-width:12;stroke-linecap:round;stroke-linejoin:round;stroke-miterlimit:4;stroke-dasharray:none;stroke-dashoffset:40;stroke-opacity:1;color-rendering:auto;image-rendering:auto;shape-rendering:auto;text-rendering:auto;enable-background:accumulate"
         inkscape:connector-curvature="0" />
    </g>
    <g
       id="g5796"
       transform="translate(-304,192.00001)">
      <path
         style="opacity:1;fill:#00de17;fill-opacity:1;fill-rule:nonzero;stroke:none;stroke-width:12;stroke-linecap:round;stroke-linejoin:round;stroke-miterlimit:4;stroke-dasharray:none;stroke-dashoffset:40;stroke-opacity:0.25098039"
         d="m 512,48 a 16,16 0 0 0 -16,16 16,16 0 0 0 16,16 l 48,0 A 16,16 0 0 0 576,64 16,16 0 0 0 560,48 l -48,0 z"
         transform="translate(0,796.36216)"
         id="path5798"
         inkscape:connector-curvature="0" />
      <path
         style="color:#000000;font-style:normal;font-variant:normal;font-weight:normal;font-stretch:normal;font-size:medium;line-height:normal;font-family:sans-serif;text-indent:0;text-align:start;text-decoration:none;text-decoration-line:none;text-decoration-style:solid;text-decoration-color:#000000;letter-spacing:normal;word-spacing:normal;text-transform:none;direction:ltr;block-progression:tb;writing-mode:lr-tb;baseline-shift:baseline;text-anchor:start;white-space:normal;clip-rule:nonzero;display:inline;overflow:visible;visibility:visible;opacity:1;isolation:auto;mix-blend-mode:normal;color-interpolation:sRGB;color-interpolation-filters:linearRGB;solid-color:#000000;solid-opacity:1;fill:#000000;fill-opacity:0.25098039;fill-rule:nonzero;stroke:none;stroke-width:12;stroke-linecap:round;stroke-linejoin:round;stroke-miterlimit:4;stroke-dasharray:none;stroke-dashoffset:40;stroke-opacity:1;color-rendering:auto;image-rendering:auto;shape-rendering:auto;text-rendering:auto;enable-background:accumulate"
         d="m 512,48 a 16,16 0 0 0 -16,16 16,16 0 0 0 16,16 l 48,0 A 16,16 0 0 0 576,64 16,16 0 0 0 560,48 l -48,0 z m 0,6 48,0 c 5.59392,0 10,4.40608 10,10 0,5.59392 -4.40608,10 -10,10 l -48,0 c -5.59392,0 -10,-4.40608 -10,-10 0,-5.59392 4.40608,-10 10,-10 z"
         transform="translate(0,796.36216)"
         id="path5800"
         inkscape:connector-curvature="0" />
    </g>
    <g
       id="g5811">
      <path
         sodipodi:nodetypes="cccsssssccssssccc"
         inkscape:connector-curvature="0"
         id="path4778"
         d="m 0,956.36216 0,16 0,16 0,112.00004 c 0,8.8365 7.16344,16 16,16 l 240,0 c 8.83656,0 16,-7.1635 16,-16 0,-8.8366 -7.16344,-16 -16,-16 l -224,0 0,-64 224,0 c 8.83656,0 16,-7.1635 16,-16 l 0,-32.00003 c 0,-8.83656 -7.16344,-16 -16,-16 l -224,-10e-6 -16,0 z"
         style="opacity:1;fill:#ffbf00;fill-opacity:1;fill-rule:nonzero;stroke:none;stroke-width:12;stroke-linecap:round;stroke-linejoin:round;stroke-miterlimit:4;stroke-dasharray:none;stroke-dashoffset:40;stroke-opacity:0.25098039" />
      <path
         id="path5804"
         transform="translate(0,796.36216)"
         d="m 0,160 0,16 0,16 0,112 c 0,8.8365 7.16344,16 16,16 l 240,0 c 8.83656,0 16,-7.1635 16,-16 0,-8.8366 -7.16344,-16 -16,-16 l -224,0 0,-64 224,0 c 8.83656,0 16,-7.1635 16,-16 l 0,-32 c 0,-8.83656 -7.16344,-16 -16,-16 l -224,0 -16,0 -16,0 z m 6,6 10,0 16,0 224,0 c 5.59392,0 10,4.40608 10,10 l 0,32 c 0,5.5939 -4.4061,10 -10,10 l -224,0 a 6.0006,6.0006 0 0 0 -6,6 l 0,64 a 6.0006,6.0006 0 0 0 6,6 l 224,0 c 5.59394,0 10,4.4061 10,10 0,5.5939 -4.4061,10 -10,10 L 16,314 C 10.406105,314 6,309.5939 6,304 L 6,192 6,176 6,166 Z"
         style="color:#000000;font-style:normal;font-variant:normal;font-weight:normal;font-stretch:normal;font-size:medium;line-height:normal;font-family:sans-serif;text-indent:0;text-align:start;text-decoration:none;text-decoration-line:none;text-decoration-style:solid;text-decoration-color:#000000;letter-spacing:normal;word-spacing:normal;text-transform:none;direction:ltr;block-progression:tb;writing-mode:lr-tb;baseline-shift:baseline;text-anchor:start;white-space:normal;clip-rule:nonzero;display:inline;overflow:visible;visibility:visible;opacity:1;isolation:auto;mix-blend-mode:normal;color-interpolation:sRGB;color-interpolation-filters:linearRGB;solid-color:#000000;solid-opacity:1;fill:#000000;fill-opacity:0.25098039;fill-rule:nonzero;stroke:none;stroke-width:12;stroke-linecap:round;stroke-linejoin:round;stroke-miterlimit:4;stroke-dasharray:none;stroke-dashoffset:40;stroke-opacity:1;color-rendering:auto;image-rendering:auto;shape-rendering:auto;text-rendering:auto;enable-background:accumulate"
         inkscape:connector-curvature="0" />
    </g>
    <g
       id="g6860"
       transform="translate(32,63.999996)">
      <path
         inkscape:connector-curvature="0"
         style="opacity:1;fill:#00de17;fill-opacity:1;fill-rule:nonzero;stroke:none;stroke-width:12;stroke-linecap:round;stroke-linejoin:round;stroke-miterlimit:4;stroke-dasharray:none;stroke-dashoffset:40;stroke-opacity:0.25098039"
         d="m 512,48 a 16,16 0 0 0 -16,16 16,16 0 0 0 16,16 l 48,0 A 16,16 0 0 0 576,64 16,16 0 0 0 560,48 l -48,0 z"
         transform="translate(0,796.36216)"
         id="path6862" />
      <path
         inkscape:connector-curvature="0"
         style="color:#000000;font-style:normal;font-variant:normal;font-weight:normal;font-stretch:normal;font-size:medium;line-height:normal;font-family:sans-serif;text-indent:0;text-align:start;text-decoration:none;text-decoration-line:none;text-decoration-style:solid;text-decoration-color:#000000;letter-spacing:normal;word-spacing:normal;text-transform:none;direction:ltr;block-progression:tb;writing-mode:lr-tb;baseline-shift:baseline;text-anchor:start;white-space:normal;clip-rule:nonzero;display:inline;overflow:visible;visibility:visible;opacity:1;isolation:auto;mix-blend-mode:normal;color-interpolation:sRGB;color-interpolation-filters:linearRGB;solid-color:#000000;solid-opacity:1;fill:#000000;fill-opacity:0.25098039;fill-rule:nonzero;stroke:none;stroke-width:12;stroke-linecap:round;stroke-linejoin:round;stroke-miterlimit:4;stroke-dasharray:none;stroke-dashoffset:40;stroke-opacity:1;color-rendering:auto;image-rendering:auto;shape-rendering:auto;text-rendering:auto;enable-background:accumulate"
         d="m 512,48 a 16,16 0 0 0 -16,16 16,16 0 0 0 16,16 l 48,0 A 16,16 0 0 0 576,64 16,16 0 0 0 560,48 l -48,0 z m 0,6 48,0 c 5.59392,0 10,4.40608 10,10 0,5.59392 -4.40608,10 -10,10 l -48,0 c -5.59392,0 -10,-4.40608 -10,-10 0,-5.59392 4.40608,-10 10,-10 z"
         transform="translate(0,796.36216)"
         id="path6864" />
    </g>
  </g>
</svg>
